<mxfile host="Electron" agent="Mozilla/5.0 (Macintosh; Intel Mac OS X 10_15_7) AppleWebKit/537.36 (KHTML, like Gecko) draw.io/26.2.15 Chrome/134.0.6998.205 Electron/35.2.1 Safari/537.36" version="26.2.15">
  <diagram name="Page-1" id="e7e014a7-5840-1c2e-5031-d8a46d1fe8dd">
    <mxGraphModel dx="970" dy="651" grid="1" gridSize="10" guides="1" tooltips="1" connect="1" arrows="1" fold="1" page="1" pageScale="1" pageWidth="1169" pageHeight="826" background="none" math="0" shadow="0">
      <root>
        <mxCell id="0" />
        <mxCell id="1" parent="0" />
        <mxCell id="uWgvTye0iz7o-sYvmYjq-41" value="Gateway" style="shape=umlLifeline;perimeter=lifelinePerimeter;whiteSpace=wrap;html=1;container=1;dropTarget=0;collapsible=0;recursiveResize=0;outlineConnect=0;portConstraint=eastwest;newEdgeStyle={&quot;edgeStyle&quot;:&quot;elbowEdgeStyle&quot;,&quot;elbow&quot;:&quot;vertical&quot;,&quot;curved&quot;:0,&quot;rounded&quot;:0};" parent="1" vertex="1">
          <mxGeometry x="420" y="290" width="100" height="300" as="geometry" />
        </mxCell>
        <mxCell id="uWgvTye0iz7o-sYvmYjq-54" value="" style="html=1;points=[[0,0,0,0,5],[0,1,0,0,-5],[1,0,0,0,5],[1,1,0,0,-5]];perimeter=orthogonalPerimeter;outlineConnect=0;targetShapes=umlLifeline;portConstraint=eastwest;newEdgeStyle={&quot;curved&quot;:0,&quot;rounded&quot;:0};" parent="uWgvTye0iz7o-sYvmYjq-41" vertex="1">
          <mxGeometry x="45" y="80" width="10" height="210" as="geometry" />
        </mxCell>
        <mxCell id="uWgvTye0iz7o-sYvmYjq-45" value="validate" style="html=1;verticalAlign=bottom;endArrow=block;curved=0;rounded=0;" parent="uWgvTye0iz7o-sYvmYjq-41" source="uWgvTye0iz7o-sYvmYjq-54" edge="1">
          <mxGeometry x="0.076" y="-30" width="80" relative="1" as="geometry">
            <mxPoint x="45" y="57" as="sourcePoint" />
            <mxPoint x="45" y="123" as="targetPoint" />
            <Array as="points">
              <mxPoint x="20" y="90" />
              <mxPoint x="20" y="123" />
            </Array>
            <mxPoint as="offset" />
          </mxGeometry>
        </mxCell>
        <mxCell id="uWgvTye0iz7o-sYvmYjq-43" value="Scheduler" style="shape=umlLifeline;perimeter=lifelinePerimeter;whiteSpace=wrap;html=1;container=1;dropTarget=0;collapsible=0;recursiveResize=0;outlineConnect=0;portConstraint=eastwest;newEdgeStyle={&quot;edgeStyle&quot;:&quot;elbowEdgeStyle&quot;,&quot;elbow&quot;:&quot;vertical&quot;,&quot;curved&quot;:0,&quot;rounded&quot;:0};" parent="1" vertex="1">
          <mxGeometry x="650" y="290" width="100" height="300" as="geometry" />
        </mxCell>
        <mxCell id="uWgvTye0iz7o-sYvmYjq-57" value="" style="html=1;points=[[0,0,0,0,5],[0,1,0,0,-5],[1,0,0,0,5],[1,1,0,0,-5]];perimeter=orthogonalPerimeter;outlineConnect=0;targetShapes=umlLifeline;portConstraint=eastwest;newEdgeStyle={&quot;curved&quot;:0,&quot;rounded&quot;:0};" parent="uWgvTye0iz7o-sYvmYjq-43" vertex="1">
          <mxGeometry x="45" y="80" width="10" height="210" as="geometry" />
        </mxCell>
        <mxCell id="uWgvTye0iz7o-sYvmYjq-44" value="Executor" style="shape=umlLifeline;perimeter=lifelinePerimeter;whiteSpace=wrap;html=1;container=1;dropTarget=0;collapsible=0;recursiveResize=0;outlineConnect=0;portConstraint=eastwest;newEdgeStyle={&quot;edgeStyle&quot;:&quot;elbowEdgeStyle&quot;,&quot;elbow&quot;:&quot;vertical&quot;,&quot;curved&quot;:0,&quot;rounded&quot;:0};" parent="1" vertex="1">
          <mxGeometry x="770" y="290" width="100" height="300" as="geometry" />
        </mxCell>
        <mxCell id="uWgvTye0iz7o-sYvmYjq-58" value="" style="html=1;points=[[0,0,0,0,5],[0,1,0,0,-5],[1,0,0,0,5],[1,1,0,0,-5]];perimeter=orthogonalPerimeter;outlineConnect=0;targetShapes=umlLifeline;portConstraint=eastwest;newEdgeStyle={&quot;curved&quot;:0,&quot;rounded&quot;:0};" parent="uWgvTye0iz7o-sYvmYjq-44" vertex="1">
          <mxGeometry x="45" y="240" width="10" height="50" as="geometry" />
        </mxCell>
        <mxCell id="uWgvTye0iz7o-sYvmYjq-49" value="execute" style="html=1;verticalAlign=bottom;endArrow=block;curved=0;rounded=0;" parent="uWgvTye0iz7o-sYvmYjq-44" source="uWgvTye0iz7o-sYvmYjq-58" target="uWgvTye0iz7o-sYvmYjq-58" edge="1">
          <mxGeometry x="0.125" y="20" width="80" relative="1" as="geometry">
            <mxPoint x="70" y="260" as="sourcePoint" />
            <mxPoint x="69.94444444444457" y="290" as="targetPoint" />
            <Array as="points">
              <mxPoint x="80" y="260" />
              <mxPoint x="80" y="290" />
            </Array>
            <mxPoint as="offset" />
          </mxGeometry>
        </mxCell>
        <mxCell id="uWgvTye0iz7o-sYvmYjq-46" value="enqueue" style="html=1;verticalAlign=bottom;endArrow=block;curved=0;rounded=0;" parent="1" source="uWgvTye0iz7o-sYvmYjq-54" target="uWgvTye0iz7o-sYvmYjq-56" edge="1">
          <mxGeometry width="80" relative="1" as="geometry">
            <mxPoint x="480" y="440" as="sourcePoint" />
            <mxPoint x="579.5" y="440" as="targetPoint" />
          </mxGeometry>
        </mxCell>
        <mxCell id="uWgvTye0iz7o-sYvmYjq-47" value="dequeue" style="html=1;verticalAlign=bottom;endArrow=block;curved=0;rounded=0;" parent="1" target="uWgvTye0iz7o-sYvmYjq-57" edge="1">
          <mxGeometry width="80" relative="1" as="geometry">
            <mxPoint x="585" y="500" as="sourcePoint" />
            <mxPoint x="690" y="500" as="targetPoint" />
          </mxGeometry>
        </mxCell>
        <mxCell id="uWgvTye0iz7o-sYvmYjq-48" value="orchestrate" style="html=1;verticalAlign=bottom;endArrow=block;curved=0;rounded=0;entryX=0;entryY=0;entryDx=0;entryDy=5;entryPerimeter=0;" parent="1" source="uWgvTye0iz7o-sYvmYjq-57" target="uWgvTye0iz7o-sYvmYjq-58" edge="1">
          <mxGeometry width="80" relative="1" as="geometry">
            <mxPoint x="720" y="530" as="sourcePoint" />
            <mxPoint x="810" y="540" as="targetPoint" />
          </mxGeometry>
        </mxCell>
        <mxCell id="uWgvTye0iz7o-sYvmYjq-52" value="Queue" style="shape=cylinder3;whiteSpace=wrap;html=1;boundedLbl=1;backgroundOutline=1;size=15;direction=south;" parent="1" vertex="1">
          <mxGeometry x="539.5" y="300" width="90" height="30" as="geometry" />
        </mxCell>
        <mxCell id="uWgvTye0iz7o-sYvmYjq-53" value="" style="endArrow=none;dashed=1;html=1;rounded=0;entryX=1.055;entryY=0.552;entryDx=0;entryDy=0;entryPerimeter=0;" parent="1" source="uWgvTye0iz7o-sYvmYjq-56" target="uWgvTye0iz7o-sYvmYjq-52" edge="1">
          <mxGeometry width="50" height="50" relative="1" as="geometry">
            <mxPoint x="580" y="590" as="sourcePoint" />
            <mxPoint x="690" y="420" as="targetPoint" />
          </mxGeometry>
        </mxCell>
        <mxCell id="uWgvTye0iz7o-sYvmYjq-55" value="" style="endArrow=none;dashed=1;html=1;rounded=0;" parent="1" target="uWgvTye0iz7o-sYvmYjq-56" edge="1">
          <mxGeometry width="50" height="50" relative="1" as="geometry">
            <mxPoint x="580" y="590" as="sourcePoint" />
            <mxPoint x="580" y="332" as="targetPoint" />
          </mxGeometry>
        </mxCell>
        <mxCell id="uWgvTye0iz7o-sYvmYjq-56" value="" style="html=1;points=[[0,0,0,0,5],[0,1,0,0,-5],[1,0,0,0,5],[1,1,0,0,-5]];perimeter=orthogonalPerimeter;outlineConnect=0;targetShapes=umlLifeline;portConstraint=eastwest;newEdgeStyle={&quot;curved&quot;:0,&quot;rounded&quot;:0};" parent="1" vertex="1">
          <mxGeometry x="575" y="370" width="10" height="210" as="geometry" />
        </mxCell>
      </root>
    </mxGraphModel>
  </diagram>
</mxfile>
